<svg xmlns="http://www.w3.org/2000/svg" version="1.1" xmlns:xlink="http://www.w3.org/1999/xlink" xmlns:svgjs="http://svgjs.dev/svgjs" width="1000" height="1125" viewBox="0 0 1000 1125"><g transform="matrix(1,0,0,1,0,0)"><svg viewBox="0 0 320 360" data-background-color="#ffffff" preserveAspectRatio="xMidYMid meet" height="1125" width="1000" xmlns="http://www.w3.org/2000/svg" xmlns:xlink="http://www.w3.org/1999/xlink"><g id="tight-bounds" transform="matrix(1,0,0,1,0,0)"><svg viewBox="0 0 320 360" height="360" width="320"><g><svg></svg></g><g><svg viewBox="0 0 320 360" height="360" width="320"><g><path xmlns="http://www.w3.org/2000/svg" d="M160 340c88.258 0 160-71.742 160-160 0-88.258-71.742-160-160-160-88.258 0-160 71.742-160 160 0 88.258 71.742 160 160 160zM165.161 329.368v-10.323c72.671-2.684 131.2-61.213 133.884-133.884h10.323c-2.684 78.452-65.755 141.523-144.207 144.207zM165.161 30.632c78.452 2.684 141.523 65.755 144.207 144.207h-10.323c-2.684-72.671-61.213-131.2-133.884-133.884zM289.032 180c0 71.123-57.91 129.032-129.032 129.032-71.123 0-129.032-57.91-129.032-129.032 0-71.123 57.91-129.032 129.032-129.032 71.123 0 129.032 57.91 129.032 129.032zM154.839 30.632v10.323c-72.671 2.684-131.2 61.213-133.884 133.884h-10.323c2.684-78.452 65.755-141.523 144.207-144.207zM20.955 185.161c2.684 72.671 61.213 131.2 133.884 133.884v10.323c-78.452-2.684-141.523-65.755-144.207-144.207z" fill="#31c48d" fill-rule="nonzero" stroke="none" stroke-width="1" stroke-linecap="butt" stroke-linejoin="miter" stroke-miterlimit="10" stroke-dasharray="" stroke-dashoffset="0" font-family="none" font-weight="none" font-size="none" text-anchor="none" style="mix-blend-mode: normal" data-fill-palette-color="tertiary"></path></g><g transform="matrix(1,0,0,1,64,152.13129102844638)"><svg viewBox="0 0 192 55.73741794310722" height="55.73741794310722" width="192"><g><svg viewBox="0 0 192 55.73741794310722" height="55.73741794310722" width="192"><g><svg viewBox="0 0 192 55.73741794310722" height="55.73741794310722" width="192"><g><svg viewBox="0 0 192 55.73741794310722" height="55.73741794310722" width="192"><g><svg viewBox="0 0 192 55.73741794310722" height="55.73741794310722" width="192"><g><svg viewBox="0 0 192 55.73741794310722" height="55.73741794310722" width="192"><g transform="matrix(1,0,0,1,0,0)"><svg width="192" viewBox="2.25 -37.70000076293945 133.8699951171875 38.87000274658203" height="55.73741794310722" data-palette-color="#31c48d"><path d="M36.91-0.15L36.91-0.15Q36.67 0.1 36.38 0.15 36.08 0.2 35.79 0.2L35.79 0.2Q35.06 0.54 34.23 0.54L34.23 0.54Q33.69 0.24 33.64 0.34 33.59 0.44 33.45 0.54L33.45 0.54Q32.71 0.88 32.13 0.9 31.54 0.93 31.15 1.17L31.15 1.17Q30.76 0.88 30.74 0.32 30.71-0.24 30.62-0.63L30.62-0.63Q30.37-0.98 30.27-1.49 30.18-2 30.13-2.54 30.08-3.08 30-3.59 29.93-4.1 29.74-4.49L29.74-4.49Q29.69-4.74 29.71-4.93 29.74-5.13 29.64-5.37L29.64-5.37Q29.69-6.2 29.59-6.69 29.49-7.18 29.39-7.71L29.39-7.71Q29.35-8.01 29.35-8.37 29.35-8.74 29.05-8.94L29.05-8.94Q29.2-9.62 29.1-9.96 29-10.3 28.96-10.6L28.96-10.6Q28.91-10.99 28.91-11.45 28.91-11.91 28.81-12.3L28.81-12.3Q28.52-14.65 28.17-16.99 27.83-19.34 27.54-21.68L27.54-21.68Q27.25-21.44 27.12-20.95 27-20.46 26.9-20.07L26.9-20.07Q26.61-19.19 26.37-18.26 26.12-17.33 25.88-16.46L25.88-16.46Q25.78-16.06 25.71-15.55 25.63-15.04 25.49-14.65L25.49-14.65Q25-13.23 24.63-12.21 24.27-11.18 23.93-10.11L23.93-10.11Q23.83-9.52 23.73-8.98 23.63-8.45 23.54-7.91L23.54-7.91Q23.49-7.62 23.39-7.08 23.29-6.54 23.19-6.3L23.19-6.3Q23.1-6.05 23.02-5.96 22.95-5.86 23-5.62L23-5.62Q22.51-4.88 22.34-4 22.17-3.13 21.73-2.29L21.73-2.29Q21.73-1.71 21.29-1.27L21.29-1.27Q21.04-1.22 20.83-1.17 20.61-1.12 20.36-0.98L20.36-0.98Q20.12-1.07 19.8-1.1 19.48-1.12 19.19-1.12L19.19-1.12Q18.95-1.17 18.75-1.29 18.55-1.42 18.31-1.46L18.31-1.46Q18.07-1.76 17.77-1.98 17.48-2.2 17.19-2.44L17.19-2.44Q16.89-3.17 16.65-3.42L16.65-3.42Q16.5-3.96 16.26-4.42 16.02-4.88 15.92-5.47L15.92-5.47Q15.77-6.01 15.55-6.47 15.33-6.93 15.09-7.47L15.09-7.47Q14.99-7.81 14.87-8.13 14.75-8.45 14.6-8.79L14.6-8.79Q14.55-9.18 14.33-9.77 14.11-10.35 14.01-10.79L14.01-10.79Q14.01-10.84 13.84-11.3 13.67-11.77 13.5-12.3 13.33-12.84 13.16-13.28 12.99-13.72 12.94-13.77L12.94-13.77Q12.84-14.01 12.77-14.23 12.7-14.45 12.6-14.75L12.6-14.75Q12.4-15.38 12.11-16.04 11.82-16.7 11.52-17.29L11.52-17.29Q11.28-17.77 11.18-18.24 11.08-18.7 10.94-19.14L10.94-19.14Q10.84-19.38 10.77-19.58 10.69-19.78 10.6-20.02L10.6-20.02Q10.5-20.31 10.4-20.63 10.3-20.95 10.21-21.29L10.21-21.29Q9.96-21.19 9.99-20.87 10.01-20.56 9.96-20.31L9.96-20.31Q9.86-19.78 9.86-19.26 9.86-18.75 9.81-18.21L9.81-18.21Q9.72-17.63 9.62-17.09 9.52-16.55 9.47-16.02L9.47-16.02Q9.47-14.7 9.33-13.38L9.33-13.38Q9.23-12.21 9.08-11.01 8.94-9.81 8.89-8.54L8.89-8.54Q8.89-7.62 8.69-6.71 8.5-5.81 8.59-4.83L8.59-4.83Q8.5-4.64 8.5-4.54 8.5-4.44 8.5-4.25L8.5-4.25Q8.5-4 8.47-3.71 8.45-3.42 8.45-3.17L8.45-3.17Q8.45-2.73 8.54-2.59L8.54-2.59Q8.4-2.15 8.4-1.64 8.4-1.12 8.4-0.63L8.4-0.63Q8.3-0.44 8.28-0.24 8.25-0.05 8.11 0.15L8.11 0.15Q8.15 0.98 7.62 0.98L7.62 0.98Q7.47 0.98 7.3 0.9 7.13 0.83 7.03 0.68L7.03 0.68Q6.49 0.73 6.42 0.44 6.35 0.15 6.1 0.2L6.1 0.2Q5.52 0.44 5.44 0.34 5.37 0.24 5.13 0.29L5.13 0.29Q4.74-0.1 4.61-0.05 4.49 0 4.39 0L4.39 0Q3.96-0.15 3.91-0.07 3.86 0 3.71 0L3.71 0Q3.47-0.24 3.05-0.24 2.64-0.24 2.34-0.29L2.34-0.29Q2.29-0.49 2.27-0.66 2.25-0.83 2.25-1.07L2.25-1.07Q2.25-1.37 2.27-1.64 2.29-1.9 2.29-2.2L2.29-2.2Q2.29-2.44 2.27-2.71 2.25-2.98 2.25-3.32L2.25-3.32Q2.25-3.66 2.29-3.98 2.34-4.3 2.34-4.69L2.34-4.69Q2.34-4.83 2.29-4.96 2.25-5.08 2.25-5.27L2.25-5.27Q2.54-5.91 2.51-6.27 2.49-6.64 2.54-6.98L2.54-6.98Q2.64-7.81 2.71-8.62 2.78-9.42 2.88-10.25L2.88-10.25Q2.88-11.62 2.95-12.52 3.03-13.43 3.17-14.36L3.17-14.36Q3.27-14.79 3.34-15.19 3.42-15.58 3.52-16.02L3.52-16.02Q3.61-16.75 3.64-17.55 3.66-18.36 3.76-19.14L3.76-19.14Q3.86-20.36 4-21.56 4.15-22.75 4.25-23.93L4.25-23.93Q4.35-24.85 4.47-25.76 4.59-26.66 4.59-27.49L4.59-27.49Q4.59-27.93 4.71-28.61 4.83-29.3 4.88-29.79L4.88-29.79Q4.98-30.96 5.05-32.08 5.13-33.2 5.13-34.33L5.13-34.33 5.13-34.86Q5.13-34.96 5.22-35.06 5.32-35.16 5.32-35.4L5.32-35.4Q5.32-35.84 5.54-36.01 5.76-36.18 5.91-36.57L5.91-36.57Q6.15-36.57 6.47-36.52 6.79-36.47 6.93-36.23L6.93-36.23Q7.28-36.33 7.62-36.33 7.96-36.33 8.2-36.57L8.2-36.57Q8.5-36.57 8.64-36.43 8.79-36.28 9.03-36.18L9.03-36.18Q9.23-36.28 9.42-36.35 9.62-36.43 9.81-36.52L9.81-36.52Q9.96-36.43 10.03-36.3 10.11-36.18 10.25-36.13L10.25-36.13Q10.99-36.33 11.23-36.18L11.23-36.18Q11.33-35.99 11.35-35.79 11.38-35.6 11.43-35.4L11.43-35.4Q11.91-34.91 12.06-34.3 12.21-33.69 12.6-33.2L12.6-33.2Q12.7-32.91 12.82-32.62 12.94-32.32 13.04-31.93L13.04-31.93 13.18-31.35Q13.38-30.86 13.67-30.18L13.67-30.18Q13.92-29.25 14.11-28.27 14.31-27.29 14.75-26.46L14.75-26.46Q14.79-26.17 14.92-25.76 15.04-25.34 15.14-25.05L15.14-25.05Q15.48-24.22 15.84-23.41 16.21-22.61 16.5-21.68L16.5-21.68Q16.8-20.75 17.02-19.78 17.24-18.8 17.58-17.87L17.58-17.87Q17.87-16.99 18.02-16.6 18.16-16.21 18.41-15.82L18.41-15.82Q18.41-15.67 18.48-15.33 18.55-14.99 18.7-14.62 18.85-14.26 18.99-13.94 19.14-13.62 19.29-13.57L19.29-13.57Q19.43-13.67 19.46-13.87 19.48-14.06 19.63-14.21L19.63-14.21Q19.68-14.75 19.8-15.53 19.92-16.31 20.17-16.8L20.17-16.8Q20.17-17.04 20.29-17.7 20.41-18.36 20.61-19.12 20.8-19.87 20.97-20.51 21.14-21.14 21.29-21.29L21.29-21.29Q21.39-21.92 21.46-22.07 21.53-22.22 21.63-22.31L21.63-22.31Q21.68-22.71 21.83-23.05 21.97-23.39 22.02-23.78L22.02-23.78Q22.12-24.61 22.27-25.15 22.41-25.68 22.66-26.46L22.66-26.46Q22.85-27.15 23.02-27.86 23.19-28.56 23.44-29.25L23.44-29.25Q24.02-31.1 24.49-32.54 24.95-33.98 25.63-35.35L25.63-35.35Q25.78-35.79 25.88-35.89 25.98-35.99 26.07-36.08L26.07-36.08Q26.46-36.23 26.88-36.23 27.29-36.23 27.73-36.18L27.73-36.18Q28.22-36.38 28.47-36.62L28.47-36.62Q28.66-36.38 29.05-36.38L29.05-36.38Q29.54-36.38 29.74-36.67L29.74-36.67Q29.93-36.57 30.05-36.62 30.18-36.67 30.42-36.57L30.42-36.57Q30.52-36.67 30.66-36.79 30.81-36.91 30.96-36.91L30.96-36.91Q31.35-36.43 31.57-36.16 31.79-35.89 31.88-35.55L31.88-35.55Q32.03-35.11 32.06-34.59 32.08-34.08 32.32-33.64L32.32-33.64Q32.28-33.01 32.4-31.71 32.52-30.42 32.69-28.98 32.86-27.54 33.06-26.32 33.25-25.1 33.4-24.8L33.4-24.8Q33.35-24.17 33.45-23.73 33.54-23.29 33.54-22.85L33.54-22.85Q33.54-22.71 33.59-22.24 33.64-21.78 33.69-21.26 33.74-20.75 33.81-20.29 33.89-19.82 33.94-19.63L33.94-19.63Q33.94-18.75 34.23-18.26L34.23-18.26Q34.47-17.04 34.64-15.82 34.81-14.6 34.96-13.33L34.96-13.33Q35.06-12.7 35.08-12.11 35.11-11.52 35.21-10.89L35.21-10.89Q35.25-10.64 35.33-10.4 35.4-10.16 35.45-9.91L35.45-9.91Q35.55-9.42 35.6-8.98 35.64-8.54 35.74-8.11L35.74-8.11Q35.79-7.86 35.89-7.59 35.99-7.32 35.89-7.03L35.89-7.03Q35.99-6.69 35.96-6.3 35.94-5.91 36.13-5.62L36.13-5.62Q36.13-4.59 36.28-3.81L36.28-3.81Q36.33-3.22 36.57-2.64L36.57-2.64Q36.67-2.05 36.74-1.42 36.82-0.78 36.91-0.15ZM61.47-34.57L61.47-34.57Q60.94-33.59 60.25-32.28 59.57-30.96 59.18-29.98L59.18-29.98Q59.03-29.64 58.91-29.32 58.79-29 58.64-28.66L58.64-28.66Q58.4-27.93 58.03-27.27 57.66-26.61 57.37-25.88L57.37-25.88Q56.93-24.9 56.47-23.9 56-22.9 55.56-21.83L55.56-21.83Q55.08-20.85 54.81-20.14 54.54-19.43 54.25-18.7 53.95-17.97 53.73-17.26 53.51-16.55 53.37-15.97L53.37-15.97Q52.93-15.19 52.63-14.79L52.63-14.79Q52.54-13.92 52.44-13.04 52.34-12.16 52.34-11.23L52.34-11.23Q52.34-10.79 52.41-10.38 52.49-9.96 52.54-9.52L52.54-9.52Q52.59-8.89 52.56-8.28 52.54-7.67 52.59-7.03L52.59-7.03Q52.63-5.81 52.71-4.61 52.78-3.42 52.83-2.15L52.83-2.15Q52.88-1.27 52.76-0.66 52.63-0.05 52.68 0.59L52.68 0.59Q52.54 0.68 52.37 0.73 52.19 0.78 52.05 0.88L52.05 0.88Q51.51 0.88 51.34 0.85 51.17 0.83 51.02 0.93L51.02 0.93Q50.58 0.63 50.53 0.66 50.49 0.68 50.44 0.68L50.44 0.68Q49.85 0.49 49.8 0.39 49.75 0.29 49.61 0.2L49.61 0.2Q49.07 0.2 48.73 0.34L48.73 0.34Q48.58 0.24 48.48 0.15 48.39 0.05 48.24-0.05L48.24-0.05Q47.8-0.1 47.51-0.17 47.21-0.24 47.02-0.34L47.02-0.34Q46.87-0.73 46.7-1.03 46.53-1.32 46.53-1.81L46.53-1.81Q46.53-2.2 46.63-2.54 46.73-2.88 46.77-3.27L46.77-3.27Q46.77-3.52 46.75-3.71 46.73-3.91 46.73-4.15L46.73-4.15Q46.73-4.39 46.82-4.79L46.82-4.79Q46.68-5.91 46.7-7.15 46.73-8.4 46.73-9.52L46.73-9.52Q46.73-10.64 46.53-11.62L46.53-11.62Q46.58-12.26 46.53-12.52 46.48-12.79 46.48-13.09L46.48-13.09Q46.48-13.33 46.53-13.6 46.58-13.87 46.58-14.11L46.58-14.11Q46.58-14.16 46.51-14.62 46.43-15.09 46.34-15.6 46.24-16.11 46.14-16.58 46.04-17.04 46.04-17.14L46.04-17.14Q45.55-18.02 45.31-18.8 45.07-19.58 44.77-20.12L44.77-20.12Q44.58-20.51 44.38-20.9 44.19-21.29 44.04-21.73L44.04-21.73Q43.94-21.97 43.87-22.27 43.8-22.56 43.7-22.8L43.7-22.8Q43.5-23.19 43.33-23.66 43.16-24.12 42.92-24.41L42.92-24.41Q42.72-24.85 42.55-25.22 42.38-25.59 42.38-25.93L42.38-25.93Q42.23-26.51 41.92-26.98 41.6-27.44 41.35-27.93L41.35-27.93Q41.21-28.22 41.14-28.47 41.06-28.71 40.96-28.96L40.96-28.96Q40.87-29.15 40.7-29.44 40.52-29.74 40.33-29.88L40.33-29.88Q40.23-30.32 39.99-30.66 39.74-31.01 39.65-31.45L39.65-31.45Q39.4-31.79 39.11-32.13L39.11-32.13Q38.91-32.86 38.57-33.47 38.23-34.08 37.94-34.77L37.94-34.77Q38.13-35.79 39.06-36.04L39.06-36.04Q39.55-36.62 39.65-36.67 39.74-36.72 40.09-36.72L40.09-36.72Q40.38-36.96 40.67-37.13 40.96-37.3 41.35-37.21L41.35-37.21Q41.4-37.4 41.62-37.55 41.84-37.7 42.04-37.7L42.04-37.7Q42.33-37.7 42.55-37.4 42.77-37.11 43.02-36.96L43.02-36.96Q43.41-36.28 43.82-35.64 44.24-35.01 44.53-34.33L44.53-34.33Q44.87-33.64 45.14-32.96 45.41-32.28 45.94-31.64L45.94-31.64Q46.19-30.66 46.7-29.81 47.21-28.96 47.56-27.98L47.56-27.98Q47.8-27.39 48.12-26.83 48.44-26.27 48.68-25.63L48.68-25.63Q48.83-25.34 48.92-25.05 49.02-24.76 49.12-24.46L49.12-24.46Q49.22-24.22 49.31-23.83 49.41-23.44 49.56-23.19L49.56-23.19Q49.9-23.54 50.14-24.07L50.14-24.07Q50.49-24.76 50.85-25.37 51.22-25.98 51.51-26.66L51.51-26.66Q51.9-27.29 52.07-27.98 52.24-28.66 52.49-29.35L52.49-29.35Q52.59-29.59 52.71-29.83 52.83-30.08 52.93-30.37L52.93-30.37Q53.07-30.66 53.17-30.96 53.27-31.25 53.37-31.54L53.37-31.54Q53.71-32.47 54.12-33.37 54.54-34.28 54.98-35.21L54.98-35.21Q55.03-35.35 55.2-35.64 55.37-35.94 55.59-36.25 55.81-36.57 56-36.82 56.2-37.06 56.35-37.16L56.35-37.16Q56.44-37.26 56.66-37.28 56.88-37.3 57.03-37.35L57.03-37.35Q57.47-37.35 57.66-37.11L57.66-37.11Q58.25-36.87 58.54-36.77 58.84-36.67 58.98-36.33L58.98-36.33Q59.71-35.84 60.08-35.77 60.45-35.69 60.64-35.35L60.64-35.35Q61.18-35.01 61.28-34.86 61.37-34.72 61.47-34.57ZM64.16 0.59L64.16 0.59Q63.96 0.39 63.96 0.05L63.96 0.05Q63.96-0.2 63.98-0.37 64.01-0.54 64.06-0.78L64.06-0.78Q64.3-1.9 64.3-3.05 64.3-4.2 64.4-5.32L64.4-5.32Q64.45-6.01 64.47-6.69 64.5-7.37 64.5-8.06L64.5-8.06Q64.5-12.11 64.25-16.14 64.01-20.17 64.01-24.27L64.01-24.27Q64.01-27.1 64.11-29.96 64.2-32.81 64.25-35.69L64.25-35.69Q64.69-35.94 65.33-35.89 65.96-35.84 66.35-36.33L66.35-36.33Q66.6-36.38 66.84-36.35 67.08-36.33 67.33-36.33L67.33-36.33Q67.87-36.33 68.35-36.67 68.84-37.01 69.43-37.26L69.43-37.26Q69.72-37.16 69.84-37.18 69.97-37.21 70.11-37.21L70.11-37.21Q70.26-37.21 70.75-36.87 71.24-36.52 71.82-36.08 72.41-35.64 72.92-35.25 73.43-34.86 73.58-34.77L73.58-34.77Q74.8-33.84 75.75-32.74 76.7-31.64 77.63-30.52L77.63-30.52Q78.51-29.39 79.54-28.25 80.56-27.1 81.54-26.12L81.54-26.12Q81.88-25.73 82.25-25.44 82.61-25.15 82.95-24.76L82.95-24.76Q83.1-24.56 83.22-24.34 83.34-24.12 83.49-23.88L83.49-23.88Q83.78-23.54 84.17-23.29 84.57-23.05 84.91-22.71L84.91-22.71Q85.15-22.51 85.64-21.92 86.13-21.34 86.13-21.04L86.13-21.04Q86.13-20.85 86.03-20.7 85.93-20.56 85.83-20.36L85.83-20.36Q85.79-20.21 85.79-19.92 85.79-19.63 85.74-19.53L85.74-19.53Q85.25-19.14 85.2-19.04 85.15-18.95 85.05-18.85L85.05-18.85Q84.91-18.65 84.69-18.53 84.47-18.41 84.37-18.16L84.37-18.16Q84.27-18.02 84.3-17.87 84.32-17.72 84.22-17.53L84.22-17.53Q83.98-16.99 83.44-16.5 82.91-16.02 82.51-15.43L82.51-15.43Q81.98-14.55 81.44-13.67 80.9-12.79 80.22-11.96L80.22-11.96Q79.93-11.57 79.61-11.21 79.29-10.84 79-10.45L79-10.45Q78.75-10.16 78.56-9.84 78.36-9.52 78.12-9.13L78.12-9.13Q77.58-8.45 77.09-7.79 76.61-7.13 76.07-6.45L76.07-6.45Q75.48-5.62 74.8-4.81 74.12-4 73.58-3.17L73.58-3.17Q73.04-2.29 72.46-1.56 71.87-0.83 71.19-0.15L71.19-0.15Q70.99 0 70.7 0.29 70.41 0.59 70.11 0.59L70.11 0.59Q69.92 0.59 69.79 0.44 69.67 0.29 69.43 0.29L69.43 0.29Q69.38 0.29 69.14 0.34 68.89 0.39 68.55 0.44L68.55 0.44 67.67 0.54Q66.89 0.93 66.55 0.9 66.21 0.88 65.86 0.93L65.86 0.93Q65.67 0.98 65.55 1.07 65.42 1.17 65.28 1.17L65.28 1.17Q64.94 1.17 64.74 0.85 64.55 0.54 64.16 0.59ZM78.8-20.51L78.8-20.51Q78.8-20.75 78.34-21.19 77.88-21.63 77.63-21.83L77.63-21.83Q77.29-22.12 76.83-22.39 76.36-22.66 76.07-23L76.07-23Q75.83-23.29 75.61-23.61 75.39-23.93 75.14-24.22L75.14-24.22Q74.26-25.2 73.36-26.17 72.46-27.15 71.77-28.32L71.77-28.32Q71.33-28.61 70.94-29 70.55-29.39 70.01-29.64L70.01-29.64Q69.92-29.35 69.94-29.03 69.97-28.71 69.97-28.42L69.97-28.42Q69.97-27.29 69.87-26.22 69.77-25.15 69.77-24.07L69.77-24.07Q69.77-21.44 69.89-18.87 70.01-16.31 70.01-13.72L70.01-13.72Q70.01-12.74 70.04-11.77 70.06-10.79 70.21-9.81L70.21-9.81Q70.11-9.52 70.11-9.28L70.11-9.28Q70.11-9.03 70.21-8.64L70.21-8.64Q70.6-8.89 70.87-9.25 71.14-9.62 71.38-9.96L71.38-9.96Q72.21-11.04 73.02-12.13 73.82-13.23 74.65-14.36L74.65-14.36Q75.19-15.09 75.75-15.8 76.31-16.5 76.85-17.29L76.85-17.29Q77-17.48 77.31-17.97 77.63-18.46 77.95-18.97 78.27-19.48 78.54-19.92 78.8-20.36 78.8-20.51ZM90.86-0.63L90.52-0.78Q90.37-0.68 90.23-0.59 90.08-0.49 89.93-0.39L89.93-0.39Q89.4-0.1 88.96-0.07 88.52-0.05 87.98 0.44L87.98 0.44Q87.79 0.2 87.69 0.2 87.59 0.2 87.35 0.2L87.35 0.2Q86.71 0.2 86.61-0.15L86.61-0.15Q86.42-0.1 86 0.1 85.59 0.29 85.39 0.39L85.39 0.39Q85.83-0.24 85.98-0.59 86.13-0.93 86.15-1.22 86.17-1.51 86.2-1.83 86.22-2.15 86.42-2.73L86.42-2.73Q86.52-2.93 86.56-3.13 86.61-3.32 86.71-3.56L86.71-3.56Q86.96-4.3 87.13-5.22 87.3-6.15 87.69-6.84L87.69-6.84Q87.69-7.67 88.05-8.4 88.42-9.13 88.66-9.91L88.66-9.91Q88.76-10.21 88.93-10.5 89.1-10.79 89.2-11.08L89.2-11.08Q89.4-11.57 89.52-12.04 89.64-12.5 89.79-12.94L89.79-12.94Q90.18-14.36 90.57-15.75 90.96-17.14 91.3-18.55L91.3-18.55Q91.35-18.8 91.42-19.09 91.5-19.38 91.59-19.63L91.59-19.63Q91.84-20.36 91.91-21.12 91.98-21.88 92.38-22.56L92.38-22.56Q92.33-22.9 92.4-23.19 92.47-23.49 92.57-23.83 92.67-24.17 92.77-24.46 92.86-24.76 92.91-24.9L92.91-24.9Q93.16-25.54 93.28-26.05 93.4-26.56 93.79-27.15L93.79-27.15Q93.79-27.15 93.94-27.66 94.08-28.17 94.28-28.81 94.47-29.44 94.62-30 94.77-30.57 94.77-30.66L94.77-30.66Q94.87-31.05 94.94-31.4 95.01-31.74 95.11-32.13L95.11-32.13Q95.21-32.37 95.31-32.54 95.4-32.71 95.5-32.96L95.5-32.96Q95.65-33.5 95.79-34.28 95.94-35.06 96.18-35.5L96.18-35.5Q96.33-35.84 96.75-36.06 97.16-36.28 97.45-36.52L97.45-36.52Q98.33-36.43 98.75-36.62 99.16-36.82 99.55-37.11L99.55-37.11Q99.8-37.06 100.02-36.99 100.24-36.91 100.48-36.91L100.48-36.91Q101.41-35.89 101.77-34.81 102.14-33.74 102.48-32.67L102.48-32.67Q102.63-32.13 102.78-31.62 102.92-31.1 103.12-30.62L103.12-30.62Q103.17-30.47 103.26-30.3 103.36-30.13 103.46-29.93L103.46-29.93Q103.7-29.54 103.87-29.1 104.05-28.66 104.19-28.22L104.19-28.22Q104.48-27.88 104.63-27.42 104.78-26.95 104.9-26.49 105.02-26.03 105.17-25.61 105.31-25.2 105.61-24.9L105.61-24.9Q105.71-24.37 105.95-23.85 106.19-23.34 106.29-22.75L106.29-22.75Q106.58-22.36 106.97-21.26 107.37-20.17 107.76-18.9 108.15-17.63 108.49-16.46 108.83-15.28 108.98-14.79L108.98-14.79Q109.07-14.4 109.37-13.79 109.66-13.18 109.9-12.7L109.9-12.7Q110.1-12.16 110.32-11.57 110.54-10.99 110.69-10.45L110.69-10.45Q110.78-9.91 110.91-9.42 111.03-8.94 111.17-8.4L111.17-8.4Q111.27-8.06 111.47-7.79 111.66-7.52 111.76-7.13L111.76-7.13Q111.96-6.74 112.03-6.4 112.1-6.05 112.35-5.66L112.35-5.66Q112.3-5.13 112.39-4.98 112.49-4.83 112.59-4.64L112.59-4.64Q112.79-3.61 113.03-3 113.27-2.39 113.27-1.71L113.27-1.71Q113.27-1.12 113.05-0.98 112.83-0.83 112.49-0.49L112.49-0.49Q112.1-0.15 111.83 0.05 111.56 0.24 111.03 0.24L111.03 0.24Q110.44 0.2 110.32 0.42 110.2 0.63 110.15 0.73L110.15 0.73Q109.56 0.68 109.39 0.71 109.22 0.73 109.05 0.73 108.88 0.73 108.71 0.81 108.54 0.88 108.34 1.12L108.34 1.12Q108 0.73 107.68 0.42 107.37 0.1 107.12-0.29L107.12-0.29Q107.12-1.12 106.9-2.25 106.68-3.37 106.44-4L106.44-4Q105.95-5.27 105.53-6.49 105.12-7.71 104.73-8.98L104.73-8.98Q104.58-9.52 104.41-9.96 104.24-10.4 104.05-10.89L104.05-10.89Q104.14-10.5 104.12-10.08 104.09-9.67 103.85-9.28L103.85-9.28Q103.75-9.18 103.56-9.03 103.36-8.89 103.36-8.79L103.36-8.79Q102.78-8.3 102.34-7.86L102.34-7.86Q102.39-6.98 102.09-6.64 101.8-6.3 101.46-6.01L101.46-6.01Q100.63-5.96 100.43-6.1 100.24-6.25 99.89-6.3L99.89-6.3Q99.7-6.35 99.5-6.32 99.31-6.3 99.11-6.3L99.11-6.3Q98.72-6.3 98.38-6.49L98.38-6.49Q98.23-6.59 98.16-6.69 98.09-6.79 97.99-6.88L97.99-6.88Q97.6-7.28 97.09-7.54 96.57-7.81 96.09-8.01L96.09-8.01Q95.7-8.35 95.28-8.72 94.87-9.08 94.43-9.33L94.43-9.33Q94.04-8.4 93.82-7.69 93.6-6.98 93.3-6.3L93.3-6.3Q92.77-4.64 92.42-3.39 92.08-2.15 91.64-0.88L91.64-0.88Q91.45-0.83 91.28-0.73 91.11-0.63 90.86-0.63L90.86-0.63ZM95.11-11.18L95.31-11.18Q95.7-11.87 96.01-11.94 96.33-12.01 96.57-12.3L96.57-12.3Q96.67-12.4 96.79-12.55 96.92-12.7 97.06-12.84L97.06-12.84Q97.21-12.94 97.4-13.04 97.6-13.13 97.75-13.28L97.75-13.28Q98.14-13.62 98.41-13.87 98.67-14.11 99.21-14.11L99.21-14.11Q100.04-14.11 100.58-13.7 101.12-13.28 101.9-13.13L101.9-13.13Q101.99-12.84 102.53-12.72 103.07-12.6 103.36-12.4L103.36-12.4Q102.87-13.62 102.6-14.87 102.34-16.11 101.95-17.33L101.95-17.33Q101.65-18.41 101.26-19.46 100.87-20.51 100.48-21.48L100.48-21.48Q100.14-22.46 99.89-23.39 99.65-24.32 99.26-25.2L99.26-25.2Q98.87-24.32 98.48-23.05 98.09-21.78 97.89-20.8L97.89-20.8Q97.89-20.36 97.84-20.12L97.84-20.12Q97.75-19.78 97.65-19.51 97.55-19.24 97.45-18.95L97.45-18.95Q96.82-17.04 96.31-15.09 95.79-13.13 95.11-11.18L95.11-11.18ZM136.12-34.57L136.12-34.57Q135.59-33.59 134.9-32.28 134.22-30.96 133.83-29.98L133.83-29.98Q133.68-29.64 133.56-29.32 133.44-29 133.29-28.66L133.29-28.66Q133.05-27.93 132.68-27.27 132.31-26.61 132.02-25.88L132.02-25.88Q131.58-24.9 131.12-23.9 130.65-22.9 130.21-21.83L130.21-21.83Q129.73-20.85 129.46-20.14 129.19-19.43 128.9-18.7 128.6-17.97 128.38-17.26 128.16-16.55 128.02-15.97L128.02-15.97Q127.58-15.19 127.28-14.79L127.28-14.79Q127.19-13.92 127.09-13.04 126.99-12.16 126.99-11.23L126.99-11.23Q126.99-10.79 127.07-10.38 127.14-9.96 127.19-9.52L127.19-9.52Q127.24-8.89 127.21-8.28 127.19-7.67 127.24-7.03L127.24-7.03Q127.28-5.81 127.36-4.61 127.43-3.42 127.48-2.15L127.48-2.15Q127.53-1.27 127.41-0.66 127.28-0.05 127.33 0.59L127.33 0.59Q127.19 0.68 127.02 0.73 126.85 0.78 126.7 0.88L126.7 0.88Q126.16 0.88 125.99 0.85 125.82 0.83 125.67 0.93L125.67 0.93Q125.23 0.63 125.19 0.66 125.14 0.68 125.09 0.68L125.09 0.68Q124.5 0.49 124.45 0.39 124.4 0.29 124.26 0.2L124.26 0.2Q123.72 0.2 123.38 0.34L123.38 0.34Q123.23 0.24 123.13 0.15 123.04 0.05 122.89-0.05L122.89-0.05Q122.45-0.1 122.16-0.17 121.87-0.24 121.67-0.34L121.67-0.34Q121.52-0.73 121.35-1.03 121.18-1.32 121.18-1.81L121.18-1.81Q121.18-2.2 121.28-2.54 121.38-2.88 121.43-3.27L121.43-3.27Q121.43-3.52 121.4-3.71 121.38-3.91 121.38-4.15L121.38-4.15Q121.38-4.39 121.47-4.79L121.47-4.79Q121.33-5.91 121.35-7.15 121.38-8.4 121.38-9.52L121.38-9.52Q121.38-10.64 121.18-11.62L121.18-11.62Q121.23-12.26 121.18-12.52 121.13-12.79 121.13-13.09L121.13-13.09Q121.13-13.33 121.18-13.6 121.23-13.87 121.23-14.11L121.23-14.11Q121.23-14.16 121.16-14.62 121.08-15.09 120.99-15.6 120.89-16.11 120.79-16.58 120.69-17.04 120.69-17.14L120.69-17.14Q120.2-18.02 119.96-18.8 119.72-19.58 119.42-20.12L119.42-20.12Q119.23-20.51 119.03-20.9 118.84-21.29 118.69-21.73L118.69-21.73Q118.59-21.97 118.52-22.27 118.45-22.56 118.35-22.8L118.35-22.8Q118.15-23.19 117.98-23.66 117.81-24.12 117.57-24.41L117.57-24.41Q117.37-24.85 117.2-25.22 117.03-25.59 117.03-25.93L117.03-25.93Q116.88-26.51 116.57-26.98 116.25-27.44 116.01-27.93L116.01-27.93Q115.86-28.22 115.79-28.47 115.71-28.71 115.62-28.96L115.62-28.96Q115.52-29.15 115.35-29.44 115.18-29.74 114.98-29.88L114.98-29.88Q114.88-30.32 114.64-30.66 114.39-31.01 114.3-31.45L114.3-31.45Q114.05-31.79 113.76-32.13L113.76-32.13Q113.56-32.86 113.22-33.47 112.88-34.08 112.59-34.77L112.59-34.77Q112.78-35.79 113.71-36.04L113.71-36.04Q114.2-36.62 114.3-36.67 114.39-36.72 114.74-36.72L114.74-36.72Q115.03-36.96 115.32-37.13 115.62-37.3 116.01-37.21L116.01-37.21Q116.05-37.4 116.27-37.55 116.49-37.7 116.69-37.7L116.69-37.7Q116.98-37.7 117.2-37.4 117.42-37.11 117.67-36.96L117.67-36.96Q118.06-36.28 118.47-35.64 118.89-35.01 119.18-34.33L119.18-34.33Q119.52-33.64 119.79-32.96 120.06-32.28 120.6-31.64L120.6-31.64Q120.84-30.66 121.35-29.81 121.87-28.96 122.21-27.98L122.21-27.98Q122.45-27.39 122.77-26.83 123.09-26.27 123.33-25.63L123.33-25.63Q123.48-25.34 123.57-25.05 123.67-24.76 123.77-24.46L123.77-24.46Q123.87-24.22 123.96-23.83 124.06-23.44 124.21-23.19L124.21-23.19Q124.55-23.54 124.79-24.07L124.79-24.07Q125.14-24.76 125.5-25.37 125.87-25.98 126.16-26.66L126.16-26.66Q126.55-27.29 126.72-27.98 126.89-28.66 127.14-29.35L127.14-29.35Q127.24-29.59 127.36-29.83 127.48-30.08 127.58-30.37L127.58-30.37Q127.72-30.66 127.82-30.96 127.92-31.25 128.02-31.54L128.02-31.54Q128.36-32.47 128.77-33.37 129.19-34.28 129.63-35.21L129.63-35.21Q129.68-35.35 129.85-35.64 130.02-35.94 130.24-36.25 130.46-36.57 130.65-36.82 130.85-37.06 131-37.16L131-37.16Q131.09-37.26 131.31-37.28 131.53-37.3 131.68-37.35L131.68-37.35Q132.12-37.35 132.31-37.11L132.31-37.11Q132.9-36.87 133.19-36.77 133.49-36.67 133.63-36.33L133.63-36.33Q134.37-35.84 134.73-35.77 135.1-35.69 135.29-35.35L135.29-35.35Q135.83-35.01 135.93-34.86 136.03-34.72 136.12-34.57Z" opacity="1" transform="matrix(1,0,0,1,0,0)" fill="#31c48d" class="undefined-text-0" data-fill-palette-color="primary" id="text-0"></path></svg></g></svg></g></svg></g></svg></g></svg></g></svg></g></svg></g></svg></g><defs></defs></svg><rect width="320" height="360" fill="none" stroke="none" visibility="hidden"></rect></g></svg></g></svg>